<?xml version="1.0" standalone="no"?>
<!DOCTYPE svg PUBLIC "-//W3C//DTD SVG 20010904//EN"
 "http://www.w3.org/TR/2001/REC-SVG-20010904/DTD/svg10.dtd">
<svg version="1.0" xmlns="http://www.w3.org/2000/svg"
 width="762.000000pt" height="762.000000pt" viewBox="0 0 762.000000 762.000000"
 preserveAspectRatio="xMidYMid meet">
<metadata>
Created by potrace 1.14, written by Peter Selinger 2001-2017
</metadata>
<g transform="translate(0.000000,762.000000) scale(0.100000,-0.100000)"
fill="#000000" stroke="none">
<path d="M7096 7233 c-38 -98 -74 -191 -81 -208 -8 -16 -88 -217 -178 -445
-435 -1097 -538 -1357 -547 -1375 -5 -11 -26 -63 -46 -115 -51 -132 -99 -230
-129 -265 -34 -38 -93 -162 -205 -430 -51 -121 -98 -233 -105 -250 -7 -16 -39
-93 -70 -170 -31 -77 -63 -153 -70 -170 -8 -16 -55 -131 -105 -255 -85 -208
-229 -558 -249 -605 -5 -11 -18 -41 -30 -67 -12 -26 -21 -50 -21 -54 0 -25
-137 -277 -169 -311 -105 -111 -195 -147 -366 -148 -146 0 -245 24 -610 144
-249 82 -429 140 -455 146 -8 2 -37 11 -65 19 -277 80 -673 183 -940 242 -139
30 -301 65 -330 70 -16 2 -73 13 -125 24 -152 30 -387 67 -545 85 -27 3 -68 8
-90 10 -288 35 -637 40 -770 11 -45 -10 -144 -49 -210 -82 -220 -112 -375
-285 -478 -534 -88 -214 -108 -330 -102 -595 2 -104 6 -203 9 -220 2 -16 7
-52 11 -80 16 -118 78 -355 114 -440 113 -261 217 -419 391 -595 201 -205 423
-317 685 -348 129 -15 626 -6 720 13 11 2 43 7 70 10 86 11 109 14 135 20 14
3 44 7 67 10 24 3 76 11 115 19 159 32 244 48 268 53 14 2 95 20 180 39 85 20
167 38 181 40 14 3 120 29 235 60 115 30 216 56 224 58 50 13 141 39 250 71
69 20 139 41 155 45 79 20 448 149 595 207 142 56 328 143 395 186 194 121
440 364 641 632 206 274 224 307 400 713 47 108 92 211 99 227 45 99 203 479
295 710 131 327 218 566 300 825 34 107 64 202 67 210 3 8 7 20 8 25 2 6 13
44 26 85 24 77 24 82 16 160 -4 35 4 69 34 155 21 61 43 119 48 130 5 11 64
162 131 335 67 173 128 329 135 345 7 17 27 68 45 115 18 47 41 104 52 127 10
23 18 45 18 48 0 4 6 21 14 38 8 18 28 70 46 117 18 47 39 99 46 115 7 17 23
59 37 95 37 95 107 274 172 440 31 80 82 208 112 285 29 77 59 150 65 163 16
31 7 38 -144 117 -128 66 -128 66 -137 43 -36 -91 -135 -339 -145 -363 -7 -16
-29 -73 -49 -125 -19 -52 -38 -104 -43 -115 -4 -11 -8 -22 -9 -25 -3 -9 -17
-44 -46 -121 -16 -42 -29 -79 -29 -83 0 -5 -6 -22 -14 -39 -15 -35 -40 -101
-141 -367 -36 -96 -70 -184 -75 -195 -9 -19 -176 -459 -321 -844 -39 -102 -74
-190 -79 -197 -13 -14 -60 -6 -67 13 -3 7 7 48 22 91 27 77 307 789 325 827 5
11 41 101 80 200 39 99 78 194 86 212 7 17 14 34 14 38 0 4 6 21 14 38 8 18
40 97 71 177 105 269 313 784 343 852 23 49 28 69 19 76 -16 11 -105 52 -115
52 -4 0 -39 -80 -76 -177z m-795 -2499 c18 -21 -14 -64 -43 -59 -51 10 -78 17
-78 20 0 18 18 39 43 50 33 14 60 10 78 -11z m-4566 -2358 c11 -2 55 -7 97
-11 43 -3 88 -8 100 -10 21 -3 112 -13 198 -21 41 -4 194 -11 405 -19 83 -4
170 -8 195 -10 25 -2 74 -6 110 -9 36 -3 94 -8 130 -11 36 -3 77 -7 90 -10 13
-3 51 -7 84 -10 34 -3 72 -7 86 -10 14 -3 45 -7 70 -10 25 -3 70 -10 100 -15
30 -5 75 -12 100 -15 24 -4 47 -8 50 -10 3 -2 25 -6 49 -10 103 -15 706 -163
820 -202 70 -23 163 -78 204 -120 130 -134 159 -392 64 -563 -95 -172 -179
-222 -567 -335 -99 -30 -400 -131 -480 -162 -8 -4 -17 -7 -20 -8 -3 -1 -12 -4
-20 -8 -8 -3 -69 -24 -135 -46 -107 -35 -205 -66 -425 -131 -55 -16 -271 -72
-334 -85 -45 -10 -213 -44 -241 -49 -342 -62 -619 -82 -865 -62 -83 7 -98 9
-170 21 -68 12 -186 46 -226 66 -47 22 -120 91 -174 164 -106 143 -194 419
-260 815 -22 127 -29 314 -16 400 21 136 78 247 170 332 49 46 182 116 251
132 49 12 127 26 160 30 46 5 370 -1 400 -8z"/>
<path d="M2810 2129 c-58 -10 -121 -21 -140 -24 -30 -4 -126 -22 -225 -40 -16
-3 -46 -8 -65 -11 -19 -3 -111 -19 -205 -35 -93 -17 -183 -32 -200 -35 -16 -3
-79 -14 -140 -24 -60 -11 -128 -22 -150 -25 -22 -4 -47 -8 -55 -10 -8 -3 -33
-7 -55 -10 -41 -7 -72 -12 -115 -20 -52 -9 -266 -46 -300 -51 -108 -16 -150
-47 -150 -109 0 -25 8 -40 31 -59 40 -34 37 -34 165 -12 49 9 106 18 128 22
21 3 48 8 60 10 36 7 64 12 281 49 116 20 221 38 235 41 59 10 378 66 405 70
39 6 95 16 120 21 11 2 137 23 280 48 240 41 262 46 283 70 34 40 33 87 -4
126 -30 31 -46 32 -184 8z"/>
<path d="M3569 1906 c-2 -2 -26 -7 -54 -10 -27 -4 -99 -15 -160 -26 -60 -10
-126 -22 -145 -25 -19 -3 -100 -17 -180 -31 -80 -14 -156 -27 -170 -29 -14 -2
-90 -15 -170 -29 -80 -14 -226 -39 -325 -56 -99 -17 -191 -33 -205 -35 -39 -7
-262 -45 -290 -50 -14 -2 -92 -15 -175 -30 -82 -14 -163 -28 -180 -31 -16 -2
-93 -16 -170 -29 -188 -33 -197 -34 -220 -39 -11 -2 -45 -7 -75 -11 -77 -10
-116 -29 -134 -64 -23 -44 -11 -86 31 -113 l36 -21 246 41 c135 23 352 60 481
82 129 23 327 56 440 75 113 20 216 37 230 40 25 5 299 52 355 61 17 2 41 6
55 9 14 3 39 7 55 10 17 2 55 9 85 15 30 6 73 13 95 16 22 2 47 7 55 9 8 2 29
6 45 9 17 3 59 10 95 16 36 6 92 15 125 20 33 5 85 14 115 20 30 6 75 14 100
17 118 15 167 95 99 162 -27 27 -75 41 -90 27z"/>
<path d="M4005 1630 c-54 -11 -85 -17 -190 -34 -123 -20 -444 -75 -475 -81
-14 -3 -38 -7 -55 -10 -16 -2 -82 -13 -145 -25 -63 -11 -131 -22 -150 -25 -19
-3 -44 -7 -55 -9 -11 -2 -65 -11 -120 -20 -107 -18 -136 -23 -175 -31 -14 -2
-133 -23 -265 -45 -132 -23 -251 -43 -265 -46 -23 -4 -46 -8 -125 -20 -16 -3
-66 -11 -110 -19 -44 -8 -93 -17 -110 -20 -16 -3 -41 -7 -55 -9 -14 -3 -95
-17 -180 -31 -85 -14 -166 -28 -180 -30 -14 -3 -68 -12 -120 -21 -52 -9 -101
-21 -108 -27 -44 -35 -49 -109 -10 -144 22 -20 81 -23 158 -10 25 5 110 20
190 33 80 14 154 27 165 29 11 1 48 8 83 15 35 6 75 13 90 15 15 2 83 13 152
25 135 23 145 25 235 40 106 18 120 20 145 26 14 3 39 8 55 10 52 7 88 13 150
24 60 11 67 12 140 24 23 3 52 8 65 11 24 5 357 61 410 70 14 2 66 11 115 20
129 22 141 24 230 40 44 7 94 16 110 19 200 31 507 87 527 96 55 26 65 104 17
144 -32 28 -67 31 -144 16z"/>
<path d="M3689 1226 c-2 -2 -24 -7 -49 -10 -25 -3 -83 -13 -130 -21 -47 -9
-98 -18 -115 -20 -16 -3 -43 -7 -58 -11 -16 -3 -38 -7 -50 -9 -12 -1 -62 -10
-112 -18 -49 -9 -106 -18 -125 -21 -19 -3 -46 -8 -60 -10 -59 -11 -147 -27
-175 -31 -56 -9 -90 -15 -110 -19 -16 -3 -224 -39 -360 -62 -16 -3 -43 -7 -60
-9 -16 -3 -104 -18 -195 -34 -91 -16 -235 -42 -320 -56 -85 -15 -166 -29 -180
-31 -14 -3 -38 -7 -55 -9 -119 -17 -157 -31 -175 -64 -34 -64 17 -142 87 -135
37 3 117 15 138 20 6 1 26 5 45 8 19 4 46 8 60 11 25 5 52 9 124 20 21 4 48 9
60 11 11 2 50 9 86 15 75 11 105 17 140 24 22 5 284 49 350 60 42 7 334 57
355 61 11 2 101 18 200 35 99 16 191 32 205 34 63 12 369 65 404 71 116 18
135 24 156 54 28 39 26 82 -6 114 -15 14 -30 26 -35 26 -4 0 -14 2 -21 5 -8 3
-16 4 -19 1z"/>
</g>
</svg>
